<svg xmlns="http://www.w3.org/2000/svg" viewBox="0 0 1600 900" width="1600" height="900" role="img" aria-label="ZMAX Upgrades illustration">
  <rect width="1600" height="900" fill="#14151A"/>
  
  <g opacity="0.55"><line x1="0" y1="0" x2="0" y2="900" stroke="#2B2C35" stroke-width="1"/><line x1="50" y1="0" x2="50" y2="900" stroke="#2B2C35" stroke-width="1"/><line x1="100" y1="0" x2="100" y2="900" stroke="#2B2C35" stroke-width="1"/><line x1="150" y1="0" x2="150" y2="900" stroke="#2B2C35" stroke-width="1"/><line x1="200" y1="0" x2="200" y2="900" stroke="#2B2C35" stroke-width="1"/><line x1="250" y1="0" x2="250" y2="900" stroke="#2B2C35" stroke-width="1"/><line x1="300" y1="0" x2="300" y2="900" stroke="#2B2C35" stroke-width="1"/><line x1="350" y1="0" x2="350" y2="900" stroke="#2B2C35" stroke-width="1"/><line x1="400" y1="0" x2="400" y2="900" stroke="#2B2C35" stroke-width="1"/><line x1="450" y1="0" x2="450" y2="900" stroke="#2B2C35" stroke-width="1"/><line x1="500" y1="0" x2="500" y2="900" stroke="#2B2C35" stroke-width="1"/><line x1="550" y1="0" x2="550" y2="900" stroke="#2B2C35" stroke-width="1"/><line x1="600" y1="0" x2="600" y2="900" stroke="#2B2C35" stroke-width="1"/><line x1="650" y1="0" x2="650" y2="900" stroke="#2B2C35" stroke-width="1"/><line x1="700" y1="0" x2="700" y2="900" stroke="#2B2C35" stroke-width="1"/><line x1="750" y1="0" x2="750" y2="900" stroke="#2B2C35" stroke-width="1"/><line x1="800" y1="0" x2="800" y2="900" stroke="#2B2C35" stroke-width="1"/><line x1="850" y1="0" x2="850" y2="900" stroke="#2B2C35" stroke-width="1"/><line x1="900" y1="0" x2="900" y2="900" stroke="#2B2C35" stroke-width="1"/><line x1="950" y1="0" x2="950" y2="900" stroke="#2B2C35" stroke-width="1"/><line x1="1000" y1="0" x2="1000" y2="900" stroke="#2B2C35" stroke-width="1"/><line x1="1050" y1="0" x2="1050" y2="900" stroke="#2B2C35" stroke-width="1"/><line x1="1100" y1="0" x2="1100" y2="900" stroke="#2B2C35" stroke-width="1"/><line x1="1150" y1="0" x2="1150" y2="900" stroke="#2B2C35" stroke-width="1"/><line x1="1200" y1="0" x2="1200" y2="900" stroke="#2B2C35" stroke-width="1"/><line x1="1250" y1="0" x2="1250" y2="900" stroke="#2B2C35" stroke-width="1"/><line x1="1300" y1="0" x2="1300" y2="900" stroke="#2B2C35" stroke-width="1"/><line x1="1350" y1="0" x2="1350" y2="900" stroke="#2B2C35" stroke-width="1"/><line x1="1400" y1="0" x2="1400" y2="900" stroke="#2B2C35" stroke-width="1"/><line x1="1450" y1="0" x2="1450" y2="900" stroke="#2B2C35" stroke-width="1"/><line x1="1500" y1="0" x2="1500" y2="900" stroke="#2B2C35" stroke-width="1"/><line x1="1550" y1="0" x2="1550" y2="900" stroke="#2B2C35" stroke-width="1"/><line x1="1600" y1="0" x2="1600" y2="900" stroke="#2B2C35" stroke-width="1"/><line x1="0" y1="0" x2="1600" y2="0" stroke="#2B2C35" stroke-width="1"/><line x1="0" y1="50" x2="1600" y2="50" stroke="#2B2C35" stroke-width="1"/><line x1="0" y1="100" x2="1600" y2="100" stroke="#2B2C35" stroke-width="1"/><line x1="0" y1="150" x2="1600" y2="150" stroke="#2B2C35" stroke-width="1"/><line x1="0" y1="200" x2="1600" y2="200" stroke="#2B2C35" stroke-width="1"/><line x1="0" y1="250" x2="1600" y2="250" stroke="#2B2C35" stroke-width="1"/><line x1="0" y1="300" x2="1600" y2="300" stroke="#2B2C35" stroke-width="1"/><line x1="0" y1="350" x2="1600" y2="350" stroke="#2B2C35" stroke-width="1"/><line x1="0" y1="400" x2="1600" y2="400" stroke="#2B2C35" stroke-width="1"/><line x1="0" y1="450" x2="1600" y2="450" stroke="#2B2C35" stroke-width="1"/><line x1="0" y1="500" x2="1600" y2="500" stroke="#2B2C35" stroke-width="1"/><line x1="0" y1="550" x2="1600" y2="550" stroke="#2B2C35" stroke-width="1"/><line x1="0" y1="600" x2="1600" y2="600" stroke="#2B2C35" stroke-width="1"/><line x1="0" y1="650" x2="1600" y2="650" stroke="#2B2C35" stroke-width="1"/><line x1="0" y1="700" x2="1600" y2="700" stroke="#2B2C35" stroke-width="1"/><line x1="0" y1="750" x2="1600" y2="750" stroke="#2B2C35" stroke-width="1"/><line x1="0" y1="800" x2="1600" y2="800" stroke="#2B2C35" stroke-width="1"/><line x1="0" y1="850" x2="1600" y2="850" stroke="#2B2C35" stroke-width="1"/><line x1="0" y1="900" x2="1600" y2="900" stroke="#2B2C35" stroke-width="1"/></g>
  
  <defs>
    <pattern id="hz93046" width="28" height="28" patternTransform="rotate(-45)" patternUnits="userSpaceOnUse">
      <rect width="28" height="28" fill="#14151A"/>
      <rect width="14" height="28" fill="#FF5A1F"/>
    </pattern>
    <clipPath id="hz93046-clip">
      <polygon points="1380,0 1600,0 1600,220"/>
    </clipPath>
  </defs>
  <rect width="1600" height="900" fill="url(#hz93046)" clip-path="url(#hz93046-clip)"/>
  <rect x="0" y="860" width="1600" height="40" fill="#1D1E25"/>
  <line x1="120" y1="680" x2="620" y2="680" stroke="#F2C230" stroke-width="1.5" stroke-dasharray="6 5" opacity="0.85"/>
  <circle cx="120" cy="680" r="3" fill="#F2C230"/><circle cx="620" cy="680" r="3" fill="#F2C230"/>
  <text x="120" y="665" font-family="'JetBrains Mono', 'Courier New', monospace" font-size="18" fill="#F2C230" letter-spacing="1.5" text-anchor="start" opacity="0.9">RIDE HEIGHT +38MM</text>
  
  <g transform="translate(560,430) scale(1.9)" fill="none" stroke="#FF5A1F" stroke-width="4" stroke-linejoin="round" stroke-linecap="round">
    <!-- chassis / lower body line -->
    <path d="M15,150 L15,118 Q15,108 25,105 L120,90 L150,38 Q157,26 172,26 L235,26 Q248,26 248,40 L248,90 L400,90 Q430,90 430,112 L430,150 Z"/>
    <!-- cab windows -->
    <rect x="160" y="42" width="82" height="46" rx="4" fill="#14151A" stroke="#FF5A1F" stroke-width="3"/>
    <line x1="201" y1="42" x2="201" y2="88" stroke="#FF5A1F" stroke-width="3"/>
    <!-- open bed rails -->
    <line x1="253" y1="90" x2="253" y2="58" stroke="#FF5A1F" stroke-width="4"/>
    <line x1="253" y1="58" x2="400" y2="58" stroke="#FF5A1F" stroke-width="4"/>
    <line x1="400" y1="58" x2="400" y2="90" stroke="#FF5A1F" stroke-width="4"/>
    <!-- wheels -->
    <circle cx="110" cy="152" r="34" fill="#14151A" stroke="#FF5A1F" stroke-width="6"/>
    <circle cx="110" cy="152" r="11" fill="#FF5A1F"/>
    <circle cx="370" cy="152" r="34" fill="#14151A" stroke="#FF5A1F" stroke-width="6"/>
    <circle cx="370" cy="152" r="11" fill="#FF5A1F"/>
  </g>
  <g><ellipse cx="300" cy="464" rx="54.400000000000006" ry="17.6" fill="none" stroke="#F2C230" stroke-width="4.800000000000001"/><ellipse cx="300" cy="502.4" rx="54.400000000000006" ry="17.6" fill="none" stroke="#F2C230" stroke-width="4.800000000000001"/><ellipse cx="300" cy="540.8" rx="54.400000000000006" ry="17.6" fill="none" stroke="#F2C230" stroke-width="4.800000000000001"/><ellipse cx="300" cy="579.2" rx="54.400000000000006" ry="17.6" fill="none" stroke="#F2C230" stroke-width="4.800000000000001"/><ellipse cx="300" cy="617.6" rx="54.400000000000006" ry="17.6" fill="none" stroke="#F2C230" stroke-width="4.800000000000001"/><ellipse cx="300" cy="656" rx="54.400000000000006" ry="17.6" fill="none" stroke="#F2C230" stroke-width="4.800000000000001"/>
    <line x1="300" y1="425.6" x2="300" y2="406.4" stroke="#F2C230" stroke-width="4.800000000000001"/>
    <line x1="300" y1="656" x2="300" y2="675.2" stroke="#F2C230" stroke-width="4.800000000000001"/>
  </g>
  <text x="90" y="100" font-family="'JetBrains Mono', 'Courier New', monospace" font-size="42" fill="#ECECE4" letter-spacing="1.5" text-anchor="start" opacity="0.9">ZMAX UPGRADES</text>
  <text x="90" y="140" font-family="'JetBrains Mono', 'Courier New', monospace" font-size="20" fill="#FF5A1F" letter-spacing="1.5" text-anchor="start" opacity="0.9">SUSPENSION &amp; PERFORMANCE — TRINIDAD &amp; TOBAGO</text>
  <rect x="88" y="750" width="430" height="2" fill="#2B2C35"/>
  <text x="90" y="780" font-family="'JetBrains Mono', 'Courier New', monospace" font-size="16" fill="#ECECE4" letter-spacing="1.5" text-anchor="start" opacity="0.6">FIG. 01 — BAY 2 / LIFT JOB</text>
  
</svg>
